# xmcd CD database file
#
# Track frame offsets:
#	150
#	16938
#	30430
#	49588
#	61495
#	78188
#	92130
#	107703
#	123250
#	140973
#	153000
#
# Disc length: 2310 seconds
#
# Revision: 3
# Processed by: cddbd v1.5.2PL0 Copyright (c) Steve Scherf et al.
# Submitted via: CDex 1.51
#
DISCID=8209040b
DTITLE=Carlene Carter - I Fell In Love
DYEAR=1990
DGENRE=Country
TTITLE0=I Fell in Love
TTITLE1=Come On Back
TTITLE2=The Sweetest Thing
TTITLE3=My Dixie Darlin'
TTITLE4=Goodnight Dallas
TTITLE5=One Love
TTITLE6=The Leavin' Side
TTITLE7=Guardian Angel
TTITLE8=Me And The Wildwood Rose
TTITLE9=You Are The One
TTITLE10=Easy From Now On
EXTD=YEAR: 1990
EXTT0=
EXTT1=
EXTT2=
EXTT3=
EXTT4=
EXTT5=
EXTT6=
EXTT7=
EXTT8=
EXTT9=
EXTT10=
PLAYORDER=
